<svg width="12" height="12" viewBox="0 0 12 12" fill="none" xmlns="http://www.w3.org/2000/svg">
<path d="M3.4915 8.50834C3.59845 8.61528 3.73456 8.66876 3.89984 8.66876C4.06511 8.66876 4.20123 8.61528 4.30817 8.50834L5.99984 6.81667L7.70609 8.52292C7.81303 8.62987 7.94681 8.68081 8.10742 8.67575C8.26764 8.67109 8.40123 8.61528 8.50817 8.50834C8.61511 8.40139 8.66859 8.26528 8.66859 8.10001C8.66859 7.93473 8.61511 7.79862 8.50817 7.69167L6.8165 6L8.52275 4.29375C8.6297 4.18681 8.68064 4.05303 8.67559 3.89242C8.67092 3.7322 8.61511 3.59862 8.50817 3.49167C8.40123 3.38473 8.26511 3.33126 8.09984 3.33126C7.93456 3.33126 7.79845 3.38473 7.6915 3.49167L5.99984 5.18334L4.29359 3.47709C4.18664 3.37014 4.05306 3.31901 3.89284 3.32367C3.73223 3.32873 3.59845 3.38473 3.4915 3.49167C3.38456 3.59862 3.33109 3.73473 3.33109 3.9C3.33109 4.06528 3.38456 4.20139 3.4915 4.30834L5.18317 6L3.47692 7.70625C3.36998 7.8132 3.31903 7.94678 3.32409 8.10701C3.32875 8.26762 3.38456 8.40139 3.4915 8.50834ZM5.99984 11.8333C5.19289 11.8333 4.43456 11.6801 3.72484 11.3737C3.01512 11.0676 2.39775 10.6521 1.87275 10.1271C1.34775 9.60209 0.932226 8.98473 0.626171 8.275C0.319726 7.56528 0.166504 6.80695 0.166504 6C0.166504 5.19306 0.319726 4.43473 0.626171 3.72501C0.932226 3.01528 1.34775 2.39792 1.87275 1.87292C2.39775 1.34792 3.01512 0.932199 3.72484 0.625755C4.43456 0.319699 5.19289 0.166672 5.99984 0.166672C6.80678 0.166672 7.56511 0.319699 8.27484 0.625755C8.98456 0.932199 9.60192 1.34792 10.1269 1.87292C10.6519 2.39792 11.0674 3.01528 11.3735 3.72501C11.6799 4.43473 11.8332 5.19306 11.8332 6C11.8332 6.80695 11.6799 7.56528 11.3735 8.275C11.0674 8.98473 10.6519 9.60209 10.1269 10.1271C9.60192 10.6521 8.98456 11.0676 8.27484 11.3737C7.56511 11.6801 6.80678 11.8333 5.99984 11.8333ZM5.99984 10.6667C7.29289 10.6667 8.39403 10.2123 9.30325 9.30342C10.2121 8.3942 10.6665 7.29306 10.6665 6C10.6665 4.70695 10.2121 3.60581 9.30325 2.69659C8.39403 1.78775 7.29289 1.33334 5.99984 1.33334C4.70678 1.33334 3.60584 1.78775 2.697 2.69659C1.78778 3.60581 1.33317 4.70695 1.33317 6C1.33317 7.29306 1.78778 8.3942 2.697 9.30342C3.60584 10.2123 4.70678 10.6667 5.99984 10.6667Z" fill="#979797"/>
</svg>
