<svg width="12" height="12" viewBox="0 0 12 12" fill="none" xmlns="http://www.w3.org/2000/svg">
<path d="M1.91667 11.25C1.59583 11.25 1.32108 11.1359 1.09242 10.9076C0.864139 10.6789 0.75 10.4042 0.75 10.0833V1.91667C0.75 1.59583 0.864139 1.32108 1.09242 1.09242C1.32108 0.864139 1.59583 0.75 1.91667 0.75H8.43542C8.59097 0.75 8.73933 0.779167 8.8805 0.8375C9.02128 0.895833 9.14514 0.978472 9.25208 1.08542L10.9146 2.74792C11.0215 2.85486 11.1042 2.97872 11.1625 3.1195C11.2208 3.26067 11.25 3.40903 11.25 3.56458V10.0833C11.25 10.4042 11.1359 10.6789 10.9076 10.9076C10.6789 11.1359 10.4042 11.25 10.0833 11.25H1.91667ZM10.0833 3.57917L8.42083 1.91667H1.91667V10.0833H10.0833V3.57917ZM6 9.5C6.48611 9.5 6.89931 9.32986 7.23958 8.98958C7.57986 8.64931 7.75 8.23611 7.75 7.75C7.75 7.26389 7.57986 6.85069 7.23958 6.51042C6.89931 6.17014 6.48611 6 6 6C5.51389 6 5.10069 6.17014 4.76042 6.51042C4.42014 6.85069 4.25 7.26389 4.25 7.75C4.25 8.23611 4.42014 8.64931 4.76042 8.98958C5.10069 9.32986 5.51389 9.5 6 9.5ZM3.08333 4.83333H7.16667C7.33194 4.83333 7.47058 4.77733 7.58258 4.66533C7.69419 4.55372 7.75 4.41528 7.75 4.25V3.08333C7.75 2.91806 7.69419 2.77942 7.58258 2.66742C7.47058 2.55581 7.33194 2.5 7.16667 2.5H3.08333C2.91806 2.5 2.77942 2.55581 2.66742 2.66742C2.55581 2.77942 2.5 2.91806 2.5 3.08333V4.25C2.5 4.41528 2.55581 4.55372 2.66742 4.66533C2.77942 4.77733 2.91806 4.83333 3.08333 4.83333ZM1.91667 3.57917V10.0833V1.91667V3.57917Z" fill="white"/>
</svg>
