<svg width="14" height="14" viewBox="0 0 14 14" fill="none" xmlns="http://www.w3.org/2000/svg">
<path d="M9.33366 4.66667V2.91667H4.66699V4.66667H3.50033V1.75H10.5003V4.66667H9.33366ZM2.33366 5.83333H11.667H3.50033H2.33366ZM10.5003 7.29167C10.6656 7.29167 10.804 7.23567 10.9157 7.12367C11.0277 7.01206 11.0837 6.87361 11.0837 6.70833C11.0837 6.54306 11.0277 6.40442 10.9157 6.29242C10.804 6.18081 10.6656 6.125 10.5003 6.125C10.335 6.125 10.1966 6.18081 10.085 6.29242C9.97299 6.40442 9.91699 6.54306 9.91699 6.70833C9.91699 6.87361 9.97299 7.01206 10.085 7.12367C10.1966 7.23567 10.335 7.29167 10.5003 7.29167ZM9.33366 11.0833V8.75H4.66699V11.0833H9.33366ZM10.5003 12.25H3.50033V9.91667H1.16699V6.41667C1.16699 5.92083 1.33713 5.50531 1.67741 5.17008C2.01769 4.83447 2.43088 4.66667 2.91699 4.66667H11.0837C11.5795 4.66667 11.9952 4.83447 12.3308 5.17008C12.666 5.50531 12.8337 5.92083 12.8337 6.41667V9.91667H10.5003V12.25ZM11.667 8.75V6.41667C11.667 6.25139 11.611 6.11275 11.499 6.00075C11.3874 5.88914 11.2489 5.83333 11.0837 5.83333H2.91699C2.75171 5.83333 2.61308 5.88914 2.50108 6.00075C2.38946 6.11275 2.33366 6.25139 2.33366 6.41667V8.75H3.50033V7.58333H10.5003V8.75H11.667Z" fill="white"/>
</svg>
