<svg width="14" height="12" viewBox="0 0 14 12" fill="none" xmlns="http://www.w3.org/2000/svg">
<path d="M7.875 11.25C8.91335 11.25 9.92839 10.9421 10.7917 10.3652C11.6551 9.78834 12.328 8.9684 12.7254 8.00909C13.1227 7.04978 13.2267 5.99418 13.0241 4.97578C12.8216 3.95738 12.3215 3.02192 11.5873 2.28769C10.8531 1.55347 9.91762 1.05345 8.89922 0.85088C7.88082 0.648307 6.82522 0.752275 5.86591 1.14963C4.9066 1.54699 4.08666 2.2199 3.50978 3.08326C2.93291 3.94662 2.625 4.96165 2.625 6V8.7125L1.05 7.1375L0.4375 7.75L3.0625 10.375L5.6875 7.75L5.075 7.1375L3.5 8.7125V6C3.5 5.13471 3.75659 4.28885 4.23732 3.56938C4.71805 2.84992 5.40133 2.28916 6.20076 1.95803C7.00019 1.6269 7.87985 1.54026 8.72852 1.70907C9.57719 1.87788 10.3567 2.29456 10.9686 2.90641C11.5804 3.51827 11.9971 4.29782 12.1659 5.14648C12.3347 5.99515 12.2481 6.87482 11.917 7.67424C11.5858 8.47367 11.0251 9.15695 10.3056 9.63768C9.58615 10.1184 8.74029 10.375 7.875 10.375V11.25Z" fill="white" stroke="white" stroke-width="0.6"/>
</svg>
