<svg width="116" height="24" viewBox="0 0 116 24" fill="none" xmlns="http://www.w3.org/2000/svg">
<g clip-path="url(#clip0_47_117)">
<path fill-rule="evenodd" clip-rule="evenodd" d="M4.44551 4.08136L6.11097 1.56896C6.32143 1.2511 6.7995 1.2511 7.00995 1.56896L12.0609 9.19516C12.3051 9.53845 12.2999 9.88683 12.0557 10.2352L7.00995 17.8487C6.7995 18.1666 6.32143 18.1666 6.11097 17.8487L4.44551 15.3363C4.33119 15.1634 4.33119 14.9396 4.44551 14.7667L5.88752 12.5899C6.11877 12.2416 5.86154 11.7813 5.43803 11.7813H1.87328C-0.634 11.7813 -0.615813 7.71264 1.87328 7.67704L5.45102 7.66178C5.87453 7.65924 6.12916 7.19897 5.89792 6.85314L4.44292 4.65606C4.33119 4.47806 4.33119 4.25428 4.44551 4.08136Z" fill="#285578"/>
<path fill-rule="evenodd" clip-rule="evenodd" d="M20.1648 0H9.30942C8.88591 0 8.63128 0.457724 8.86252 0.806103L14.1967 8.85696C14.2954 9.00445 14.4643 9.09599 14.6436 9.09599H25.4989C25.9224 9.09599 26.177 8.63827 25.9458 8.28989L20.6117 0.239034C20.5129 0.0890019 20.344 0 20.1648 0Z" fill="#F89722"/>
<path fill-rule="evenodd" clip-rule="evenodd" d="M20.1674 19.4151H9.29641C8.8781 19.4151 8.62867 18.9625 8.85472 18.6192L14.2538 10.4692C14.3499 10.3217 14.5162 10.2352 14.6955 10.2352H25.5664C25.9848 10.2352 26.2342 10.6879 26.0081 11.0312L20.609 19.1812C20.5129 19.3261 20.3466 19.4151 20.1674 19.4151Z" fill="#F89722"/>
<path d="M34.9434 4.02542C35.8814 4.02542 36.4582 4.73235 36.7648 5.27653C36.9544 5.61474 37.3676 5.75968 37.7313 5.61728L40.1996 4.6408C40.6023 4.4806 40.7842 4.03559 40.6075 3.64907C40.0203 2.36744 38.3185 -0.137328 34.086 0.195793C30.8694 0.450084 28.4946 3.13286 29.0013 6.25301C29.3495 8.40431 30.9837 9.96312 32.961 11.1659C34.8655 12.3102 35.8996 12.9765 35.8996 14.1233C35.8996 14.9498 35.328 15.4812 34.429 15.4812C33.3273 15.4812 32.5505 14.3929 32.1581 13.6809C31.9763 13.3477 31.5683 13.2028 31.2124 13.3426L28.7181 14.3293C28.3232 14.487 28.1335 14.932 28.305 15.3134C28.9026 16.6383 30.5914 19.3414 34.455 19.3414C37.8846 19.3414 40.6595 17.3426 40.6595 13.8283C40.6595 11.0057 38.5367 9.27399 36.2243 7.86267C34.5095 6.82516 33.6937 6.18435 33.6937 5.17227C33.6911 4.45008 34.2887 4.02542 34.9434 4.02542Z" fill="#285578"/>
<path d="M46.0197 0.429749H42.629C42.2133 0.429749 41.8755 0.760327 41.8755 1.16719V18.3344C41.8755 18.7413 42.2133 19.0718 42.629 19.0718H46.0197C46.4354 19.0718 46.7731 18.7413 46.7731 18.3344V1.16719C46.7757 0.760327 46.438 0.429749 46.0197 0.429749Z" fill="#285578"/>
<path d="M60.7645 0.429728H57.5401C57.1244 0.429728 56.784 0.760307 56.784 1.16972V13.2155C56.784 14.4946 56.0773 15.2117 55.0147 15.2117C53.9546 15.2117 53.2453 14.492 53.2453 13.2155V1.16717C53.2453 0.760307 52.9075 0.427185 52.4892 0.427185H49.2102C48.7919 0.427185 48.4542 0.757764 48.4542 1.16717V13.1316C48.4542 16.2746 50.2755 18.4361 53.001 19.1074C53.3934 19.204 53.622 19.5855 53.5467 19.9745C53.5077 20.1729 53.4895 20.3865 53.4895 20.6154C53.4895 22.6929 55.2043 23.9974 57.2985 23.9974C57.8233 23.9974 58.239 23.9161 58.5404 23.822C58.886 23.7152 59.0965 23.377 59.0497 23.0286L58.899 21.8792C58.847 21.4774 58.4729 21.2002 58.0624 21.2384C57.9688 21.2485 57.8675 21.2536 57.761 21.2536C56.8906 21.2536 56.3449 20.7476 56.3449 20.0559C56.3449 19.7075 56.4723 19.4609 56.5944 19.3007C56.6931 19.171 56.836 19.0845 56.9945 19.0438C59.6811 18.3166 61.5154 16.1144 61.5154 13.0248V1.16717C61.518 0.760307 61.1802 0.429728 60.7645 0.429728Z" fill="#285578"/>
<path d="M69.1464 4.02542C70.0869 4.02542 70.6637 4.73489 70.9677 5.27907C71.1548 5.61474 71.5679 5.76223 71.929 5.61728L74.3922 4.64335C74.7949 4.48314 74.9819 4.0305 74.8027 3.64144C74.2129 2.35727 72.5084 -0.13987 68.2837 0.193251C65.0672 0.447542 62.6924 3.13031 63.199 6.25047C63.5472 8.40177 65.1815 9.96058 67.1587 11.1634C69.0632 12.3077 70.0973 12.9739 70.0973 14.1208C70.0973 14.9472 69.5257 15.4787 68.6267 15.4787C67.5303 15.4787 66.7534 14.398 66.3611 13.6859C66.1766 13.3503 65.7661 13.2002 65.4049 13.3452L62.9184 14.3293C62.5235 14.487 62.3338 14.932 62.5053 15.3134C63.1029 16.6383 64.7917 19.3414 68.6553 19.3414C72.0849 19.3414 74.8598 17.3426 74.8598 13.8283C74.8598 11.0057 72.7371 9.27399 70.4247 7.86267C68.7098 6.82516 67.894 6.18435 67.894 5.17227C67.8966 4.45009 68.4942 4.02542 69.1464 4.02542Z" fill="#285578"/>
<path d="M85.6684 9.3986C85.6138 9.28417 85.6138 9.15194 85.6736 9.04005L89.4046 1.73426C89.7112 1.13414 89.2643 0.429749 88.581 0.429749H85.3826C85.0085 0.429749 84.6733 0.650982 84.5304 0.989189L82.0361 6.92435C81.862 7.34138 81.2281 7.21932 81.2281 6.76923V1.32231C81.2281 0.828986 80.8201 0.429749 80.3161 0.429749H77.3749C76.8734 0.429749 76.4655 0.826443 76.4655 1.31977V18.6624C76.4655 18.8887 76.6526 19.0744 76.8864 19.0744H80.8097C81.041 19.0744 81.2307 18.8913 81.2307 18.6624V12.178C81.2307 11.7279 81.862 11.6058 82.0387 12.0203L84.8058 18.5175C84.9487 18.8531 85.2839 19.0718 85.6554 19.0718H88.911C89.5787 19.0718 90.0178 18.3903 89.7346 17.8004L85.6684 9.3986Z" fill="#285578"/>
<path d="M113.825 10.3573V0.938328C113.825 0.658607 113.591 0.429745 113.306 0.429745H109.759C109.58 0.429745 109.413 0.52129 109.317 0.671322L103.053 10.5531C102.98 10.6701 102.939 10.8048 102.939 10.9421V13.452C102.939 13.8614 103.276 14.192 103.697 14.192H109.089C109.375 14.192 109.608 14.4208 109.608 14.7006C109.608 14.9803 109.375 15.2091 109.089 15.2091H99.005C98.3633 15.2091 98.0099 14.4793 98.4178 13.9936L101.076 10.8125C102.762 8.7883 103.526 7.16338 103.526 5.32485C103.526 2.26318 100.915 0.157654 97.7033 0.157654C94.4114 0.157654 91.8262 2.42085 91.8262 6.04449V6.0801C91.8262 6.48696 92.1639 6.81754 92.5797 6.81754H95.4143C95.8378 6.81754 96.1808 6.48188 96.1808 6.06738V5.88429C96.1808 4.76541 96.7784 4.15257 97.5968 4.15257C98.4126 4.15257 99.0388 4.76541 99.0388 5.88429C99.0388 6.81754 98.7114 7.40241 98.223 8.01525L91.9457 15.8576C91.9041 15.972 91.8677 16.0788 91.8262 16.1933V18.3318C91.8262 18.7387 92.1639 19.0693 92.5797 19.0693H113.069C113.49 19.0693 113.83 18.7362 113.83 18.3217V14.7031C113.83 14.4234 114.064 14.1945 114.35 14.1945H115.488C115.774 14.1945 116.008 13.9657 116.008 13.6859V11.3744C116.008 11.0947 115.774 10.8659 115.488 10.8659H114.35C114.056 10.8659 113.825 10.637 113.825 10.3573ZM106.943 10.8659L109.606 6.69294V10.1259C109.606 10.5353 109.265 10.8684 108.847 10.8684H106.943V10.8659Z" fill="#F89722"/>
</g>
<defs>
<clipPath id="clip0_47_117">
<rect width="116" height="24" fill="white"/>
</clipPath>
</defs>
</svg>
